<svg xmlns="http://www.w3.org/2000/svg" viewBox="0 0 831 738" width="831" height="738">
	<style>
		tspan { white-space:pre }
		.shp0 { fill: #e6b43c } 
	</style>
	<g id="Folder 6">
		<path id="Layer 1" class="shp0" d="M500 707C321.93 707 178 563.07 178 385C178 206.93 321.93 63 500 63C678.07 63 822 206.93 822 385C822 563.07 678.07 707 500 707Z" />
		<path id="Layer 2" class="shp0" d="M722.5 185C673.01 185 633 144.99 633 95.5C633 46.01 673.01 6 722.5 6C771.99 6 812 46.01 812 95.5C812 144.99 771.99 185 722.5 185Z" />
		<path id="Layer 3" class="shp0" d="M120.5 729C59.95 729 11 680.05 11 619.5C11 558.95 59.95 510 120.5 510C181.05 510 230 558.95 230 619.5C230 680.05 181.05 729 120.5 729Z" />
	</g>
</svg>