<?xml version="1.0" standalone="no"?>
<!DOCTYPE svg PUBLIC "-//W3C//DTD SVG 20010904//EN"
 "http://www.w3.org/TR/2001/REC-SVG-20010904/DTD/svg10.dtd">
<svg version="1.0" xmlns="http://www.w3.org/2000/svg"
 width="512.000000pt" height="512.000000pt" viewBox="0 0 512.000000 512.000000"
 preserveAspectRatio="xMidYMid meet">
<metadata>
Created by potrace 1.16, written by Peter Selinger 2001-2019
</metadata>
<g transform="translate(0.000000,512.000000) scale(0.100000,-0.100000)"
fill="#000000" stroke="none">
<path d="M910 4968 c0 -2 199 -484 443 -1073 l442 -1070 -57 -3 -58 -3 0 -272
0 -272 -34 -23 c-62 -42 -214 -209 -271 -296 -194 -298 -251 -653 -159 -997
122 -458 509 -812 978 -894 113 -19 308 -19 422 0 308 53 593 228 782 480 66
88 165 287 192 385 83 303 59 606 -70 877 -78 164 -184 303 -314 412 l-76 64
0 268 0 269 -55 0 c-30 0 -55 3 -55 6 0 3 198 485 440 1070 242 585 440 1066
440 1069 0 3 -186 5 -414 5 -322 0 -415 -3 -419 -12 -42 -106 -651 -1596 -656
-1605 -4 -7 -155 353 -337 800 l-331 812 -417 3 c-229 1 -416 1 -416 0z m957
-2308 l21 -50 519 0 519 0 21 50 c18 42 26 50 47 50 l26 0 0 -178 0 -178 -77
37 c-333 159 -753 160 -1065 3 -37 -19 -70 -34 -73 -34 -3 0 -5 79 -5 175 l0
175 23 0 c18 0 28 -11 44 -50z m788 -395 c379 -96 670 -403 750 -790 21 -103
21 -286 0 -389 -66 -317 -270 -581 -559 -721 -147 -72 -262 -98 -436 -98 -117
-1 -162 3 -233 21 -306 76 -546 268 -682 547 -82 167 -99 245 -99 445 0 200
17 278 99 445 149 306 429 511 771 565 99 15 276 4 389 -25z"/>
<path d="M2320 2149 c-112 -10 -194 -33 -305 -89 -227 -112 -391 -314 -457
-560 -32 -119 -32 -320 -1 -435 69 -254 229 -452 457 -567 213 -107 493 -120
712 -32 432 172 654 643 512 1084 -126 392 -500 636 -918 599z m305 -139 c275
-86 476 -313 531 -598 67 -348 -139 -711 -477 -842 -105 -40 -193 -54 -318
-48 -197 10 -363 89 -509 242 -90 95 -157 217 -188 341 -23 91 -23 256 -1 348
69 281 299 509 581 573 91 21 291 12 381 -16z"/>
<path d="M2320 1650 c-40 -80 -74 -146 -75 -148 -2 -2 -68 -13 -147 -24 -78
-11 -149 -22 -157 -24 -10 -3 24 -44 101 -122 l115 -117 -27 -155 c-15 -85
-26 -156 -25 -158 2 -2 67 30 146 72 l143 75 143 -76 c103 -54 143 -70 143
-59 0 8 -11 80 -25 160 l-26 144 116 113 c63 62 113 114 110 117 -2 3 -60 13
-127 23 -68 10 -138 21 -156 24 -30 6 -37 15 -106 153 l-73 147 -73 -145z"/>
</g>
</svg>
