<?xml version="1.0" encoding="UTF-8"?>
<svg width="1233px" height="225px" viewBox="0 0 1233 225" version="1.1" xmlns="http://www.w3.org/2000/svg" xmlns:xlink="http://www.w3.org/1999/xlink">
    <!-- Generator: Sketch 48.2 (47327) - http://www.bohemiancoding.com/sketch -->
    <title>logo</title>
    <desc>Created with Sketch.</desc>
    <defs>
        <polygon id="path-1" points="0.3945 0.3234 79.0715 0.3234 79.0715 79 0.3945 79"></polygon>
        <polygon id="path-3" points="0.3673 0.8027 95.892 0.8027 95.892 131.6747 0.3673 131.6747"></polygon>
    </defs>
    <g id="Page-1" stroke="none" stroke-width="1" fill="none" fill-rule="evenodd">
        <g id="logo">
            <path d="M684.7755,132.8096 C713.7555,130.2836 735.2605,104.6646 732.7255,75.7046 C730.1905,46.7516 704.5715,25.2466 675.6105,27.7826 C646.6495,30.3176 625.1435,55.9266 627.6795,84.8786 C630.1915,113.8496 655.8145,135.3446 684.7755,132.8096" id="Fill-1" fill="#E5B33A"></path>
            <g id="Group-5" transform="translate(675.000000, 145.117000)">
                <mask id="mask-2" fill="white">
                    <use xlink:href="#path-1"></use>
                </mask>
                <g id="Clip-4"></g>
                <path d="M39.7325,0.3234 C18.0295,0.3234 0.3945,17.9774 0.3945,39.6524 C0.3945,61.3444 18.0295,79.0004 39.7325,79.0004 C61.4065,79.0004 79.0715,61.3444 79.0715,39.6524 C79.0715,17.9774 61.4065,0.3234 39.7325,0.3234" id="Fill-3" fill="#E5B33A" mask="url(#mask-2)"></path>
            </g>
            <path d="M732.0685,28.5615 C739.8625,27.8755 745.6665,20.9835 744.9895,13.1795 C744.2955,5.3745 737.4025,-0.4095 729.5895,0.2765 C721.7945,0.9525 716.0095,7.8545 716.6865,15.6485 C717.3805,23.4535 724.2745,29.2475 732.0685,28.5615" id="Fill-6" fill="#E5B33A"></path>
            <path d="M882.2281,166.8135 C879.7111,137.8345 854.0881,116.3475 825.1321,118.8825 C796.1511,121.3995 774.6461,147.0175 777.1821,175.9795 C779.7171,204.9405 805.3361,226.4455 834.2971,223.9105 C863.2581,221.3755 884.7641,195.7555 882.2281,166.8135" id="Fill-8" fill="#E5B33A"></path>
            <path d="M834.5128,66.9141 C834.5128,45.2211 816.8768,27.5751 795.1748,27.5751 C773.4918,27.5751 755.8358,45.2211 755.8358,66.9141 C755.8358,88.5981 773.4918,106.2421 795.1748,106.2421 C816.8768,106.2421 834.5128,88.5981 834.5128,66.9141" id="Fill-10" fill="#E5B33A"></path>
            <path d="M840.7584,28.5615 C848.5524,27.8755 854.3564,20.9835 853.6794,13.1795 C852.9854,5.3745 846.0914,-0.4095 838.2784,0.2765 C830.4844,0.9525 824.6994,7.8545 825.3754,15.6485 C826.0704,23.4535 832.9644,29.2475 840.7584,28.5615" id="Fill-12" fill="#E5B33A"></path>
            <path d="M578.0944,159.5996 C577.7394,156.2336 577.4744,152.5086 577.3004,148.4276 C577.1224,144.3506 577.0354,140.9796 577.0354,138.3196 L576.5064,138.3196 C572.9764,145.5926 567.2454,151.4866 559.3074,156.0086 C551.3684,160.5306 542.9884,162.7916 534.1684,162.7916 C518.4654,162.7916 506.6904,158.0946 498.8424,148.6936 C490.9904,139.2956 487.0674,126.8816 487.0674,111.4536 L487.0674,35.1116 L505.0614,35.1116 L505.0614,104.0056 C505.0614,110.5686 505.5904,116.5076 506.6494,121.8276 C507.7064,127.1476 509.5144,131.7146 512.0734,135.5266 C514.6284,139.3416 518.0684,142.3096 522.3934,144.4376 C526.7134,146.5656 532.1384,147.6296 538.6664,147.6296 C543.4304,147.6296 548.0614,146.6576 552.5594,144.7036 C557.0574,142.7536 561.0684,139.7826 564.5994,135.7926 C568.1254,131.8026 570.9494,126.7486 573.0674,120.6306 C575.1844,114.5126 576.2414,107.2886 576.2414,98.9516 L576.2414,35.1116 L594.2364,35.1116 L594.2364,132.2016 C594.2364,135.5726 594.3234,139.9156 594.5004,145.2356 C594.6744,150.5556 594.9394,155.3436 595.2944,159.5996 L578.0944,159.5996 Z" id="Fill-14" fill="#222221"></path>
            <path d="M363.2672,35.1113 C363.6192,38.4823 363.8832,42.2063 364.0612,46.2833 C364.2352,50.3653 364.3262,53.7313 364.3262,56.3913 L364.8552,56.3913 C368.3812,49.1223 374.1172,43.2243 382.0542,38.7023 C389.9932,34.1803 398.3702,31.9203 407.1932,31.9203 C422.8922,31.9203 434.6672,36.6203 442.5192,46.0173 C450.3672,55.4193 454.2942,67.8303 454.2942,83.2573 L454.2942,159.5993 L436.3002,159.5993 L436.3002,90.7063 C436.3002,84.1473 435.7712,78.2033 434.7122,72.8833 C433.6552,67.5633 431.8432,63.0003 429.2882,59.1843 C426.7292,55.3733 423.2882,52.4013 418.9682,50.2733 C414.6432,48.1453 409.2192,47.0823 402.6952,47.0823 C397.9312,47.0823 393.3002,48.0583 388.8022,50.0073 C384.3042,51.9613 380.2892,54.9283 376.7622,58.9193 C373.2312,62.9083 370.4122,67.9633 368.2942,74.0813 C366.1782,80.1983 365.1202,87.4263 365.1202,95.7593 L365.1202,159.5993 L347.1252,159.5993 L347.1252,62.5093 C347.1252,59.1423 347.0352,54.7963 346.8612,49.4753 C346.6832,44.1553 346.4182,39.3673 346.0672,35.1113 L363.2672,35.1113 Z" id="Fill-16" fill="#222221"></path>
            <path d="M998.5934,87.7793 C998.0644,76.0753 994.3144,66.3663 987.3474,58.6523 C980.3764,50.9383 970.4534,47.0823 957.5784,47.0823 C951.5784,47.0823 946.0224,48.1913 940.9074,50.4063 C935.7884,52.6263 931.2904,55.6393 927.4124,59.4503 C923.5304,63.2653 920.4424,67.6093 918.1514,72.4843 C915.8564,77.3643 914.5324,82.4603 914.1824,87.7793 L998.5934,87.7793 Z M1016.8524,93.6323 L1016.8524,97.6223 C1016.8524,99.0433 1016.7614,100.5483 1016.5874,102.1433 L913.9174,102.1433 C914.0904,108.3533 915.3264,114.2053 917.6214,119.6993 C919.9124,125.1983 923.0874,129.9863 927.1484,134.0633 C931.2034,138.1453 935.9674,141.3793 941.4374,143.7723 C946.9034,146.1673 952.8154,147.3633 959.1664,147.3633 C968.5144,147.3633 976.5854,145.1943 983.3784,140.8463 C990.1674,136.5033 995.3274,131.4953 998.8584,125.8173 L1012.3534,136.4583 C1004.9444,145.8593 996.7824,152.5963 987.8764,156.6743 C978.9664,160.7513 969.3954,162.7923 959.1664,162.7923 C949.9914,162.7923 941.4784,161.1493 933.6304,157.8713 C925.7794,154.5923 919.0314,150.0233 913.3884,144.1723 C907.7394,138.3193 903.2864,131.4033 900.0254,123.4243 C896.7584,115.4433 895.1294,106.7573 895.1294,97.3553 C895.1294,87.9583 896.7174,79.2673 899.8924,71.2883 C903.0684,63.3073 907.4754,56.3913 913.1234,50.5403 C918.7674,44.6873 925.3824,40.1243 932.9694,36.8413 C940.5524,33.5613 948.7554,31.9203 957.5784,31.9203 C967.2784,31.9203 975.8364,33.5613 983.2454,36.8413 C990.6554,40.1243 996.8274,44.5543 1001.7694,50.1403 C1006.7054,55.7263 1010.4554,62.2433 1013.0154,69.6913 C1015.5704,77.1393 1016.8524,85.1193 1016.8524,93.6323 Z" id="Fill-18" fill="#222221"></path>
            <path d="M1111.316,50.2734 L1076.387,50.2734 L1076.387,122.8914 C1076.387,127.5044 1076.826,131.3164 1077.711,134.3304 C1078.591,137.3464 1079.869,139.6954 1081.547,141.3784 C1083.222,143.0664 1085.207,144.2174 1087.502,144.8364 C1089.792,145.4604 1092.264,145.7674 1094.911,145.7674 C1097.378,145.7674 1099.979,145.4144 1102.716,144.7034 C1105.45,143.9974 1108.05,143.0204 1110.523,141.7774 L1111.316,157.4714 C1108.141,158.7134 1104.834,159.6414 1101.393,160.2644 C1097.954,160.8834 1094.204,161.1954 1090.147,161.1954 C1086.795,161.1954 1083.267,160.7514 1079.563,159.8654 C1075.858,158.9804 1072.419,157.2964 1069.243,154.8114 C1066.067,152.3304 1063.462,148.9604 1061.437,144.7034 C1059.407,140.4474 1058.393,134.8614 1058.393,127.9454 L1058.393,50.2734 L1032.726,50.2734 L1032.726,35.1114 L1058.393,35.1114 L1058.393,0.0004 L1076.387,0.0004 L1076.387,35.1114 L1111.316,35.1114 L1111.316,50.2734 Z" id="Fill-20" fill="#222221"></path>
            <g id="Group-24" transform="translate(1137.000000, 31.117000)">
                <mask id="mask-4" fill="white">
                    <use xlink:href="#path-3"></use>
                </mask>
                <g id="Clip-23"></g>
                <path d="M80.0153,33.5207 C77.3693,28.3787 73.3543,24.1687 67.9753,20.8857 C62.5923,17.6067 56.4643,15.9647 49.5843,15.9647 C46.4103,15.9647 43.2343,16.3227 40.0583,17.0287 C36.8833,17.7397 34.0593,18.8907 31.5913,20.4867 C29.1193,22.0827 27.1333,24.1237 25.6373,26.6047 C24.1363,29.0897 23.3883,32.0157 23.3883,35.3827 C23.3883,41.2347 25.7693,45.7147 30.5333,48.8157 C35.2953,51.9197 42.7913,54.5347 53.0253,56.6627 C67.6653,59.6797 78.4693,64.0697 85.4403,69.8297 C92.4073,75.5937 95.8923,83.3537 95.8923,93.1047 C95.8923,100.1997 94.5243,106.1847 91.7903,111.0597 C89.0533,115.9387 85.4813,119.9287 81.0743,123.0297 C76.6613,126.1337 71.6803,128.3497 66.1223,129.6797 C60.5663,131.0097 54.9633,131.6747 49.3203,131.6747 C39.9673,131.6747 30.8843,129.7207 22.0653,125.8227 C13.2423,121.9237 6.0103,115.8057 0.3673,107.4687 L14.6563,96.8287 C17.8303,102.3277 22.5033,106.9367 28.6803,110.6607 C34.8533,114.3847 41.6463,116.2467 49.0553,116.2467 C52.9343,116.2467 56.6383,115.8937 60.1693,115.1827 C63.6963,114.4757 66.7853,113.2337 69.4303,111.4587 C72.0773,109.6877 74.1943,107.4267 75.7823,104.6757 C77.3693,101.9277 78.1623,98.5157 78.1623,94.4347 C78.1623,87.8757 75.0293,82.9557 68.7693,79.6717 C62.5053,76.3927 53.4623,73.3337 41.6463,70.4947 C37.9423,69.6097 34.0143,68.4997 29.8703,67.1687 C25.7243,65.8397 21.8873,63.8907 18.3603,61.3177 C14.8293,58.7497 11.9183,55.5107 9.6273,51.6087 C7.3333,47.7097 6.1883,42.8307 6.1883,36.9787 C6.1883,30.5947 7.4203,25.1417 9.8923,20.6197 C12.3613,16.0977 15.6683,12.3737 19.8163,9.4477 C23.9583,6.5217 28.6803,4.3517 33.9723,2.9307 C39.2643,1.5127 44.7313,0.8027 50.3783,0.8027 C59.0203,0.8027 67.4013,2.7557 75.5173,6.6547 C83.6283,10.5577 89.7153,16.0557 93.7753,23.1467 L80.0153,33.5207 Z" id="Fill-22" fill="#222221" mask="url(#mask-4)"></path>
            </g>
            <path d="M87.6286,158.5459 C79.6326,161.6529 71.4916,163.2089 63.2046,163.2089 C53.8646,163.2089 45.3476,161.5659 37.6436,158.2809 C29.9396,154.9979 23.2866,150.4489 17.6836,144.6419 C12.0806,138.8329 7.7316,131.8819 4.6396,123.7849 C1.5456,115.6899 0.0006,106.8899 0.0006,97.3859 C0.0006,87.8819 1.5456,79.0809 4.6396,70.9849 C7.7316,62.8899 12.0806,55.9379 17.6836,50.1299 C23.2866,44.3209 29.9666,39.7749 37.7306,36.4889 C45.4916,33.2059 53.9826,31.5619 63.2046,31.5619 C70.9086,31.5619 78.4076,32.8819 85.7026,35.5219 C92.9966,38.1609 99.2126,42.1819 104.3496,47.5769 L101.8986,50.3939 C99.4466,47.8139 96.6736,45.5539 93.5816,43.6169 C90.4876,41.6819 87.2186,40.0699 83.7766,38.7769 C80.3336,37.4869 76.8606,36.5499 73.3596,35.9619 C69.8576,35.3759 66.4716,35.0809 63.2046,35.0809 C54.3336,35.0809 46.2496,36.6949 38.9566,39.9219 C31.6596,43.1499 25.4146,47.5769 20.2226,53.2089 C15.0266,58.8419 11.0006,65.4419 8.1416,73.0099 C5.2796,80.5769 3.8526,88.7039 3.8526,97.3859 C3.8526,106.0699 5.2526,114.1929 8.0536,121.7619 C10.8556,129.3289 14.8526,135.9299 20.0466,141.5619 C25.2396,147.1929 31.4846,151.6239 38.7806,154.8499 C46.0736,158.0779 54.2156,159.6899 63.2046,159.6899 C70.9086,159.6899 78.5246,158.1929 86.0536,155.2009 C93.5816,152.2089 99.7976,147.7219 104.6996,141.7369 L107.5016,144.3779 C102.2486,150.7139 95.6226,155.4379 87.6286,158.5459" id="Fill-25" fill="#666667"></path>
            <path d="M206.7731,126.9531 C206.7731,121.3211 205.6341,116.5121 203.3591,112.5211 C201.0831,108.5341 198.1941,105.3061 194.6921,102.8421 C191.1911,100.3781 187.3381,98.5901 183.1361,97.4741 C178.9351,96.3591 174.8471,95.8021 170.8801,95.8021 L136.5641,95.8021 L136.5641,156.1701 L168.9551,156.1701 C174.3221,156.1701 179.3421,155.6141 184.0111,154.4971 C188.6791,153.3841 192.6791,151.6541 196.0051,149.3061 C199.3321,146.9601 201.9591,143.9371 203.8841,140.2411 C205.8101,136.5461 206.7731,132.1181 206.7731,126.9531 M200.9961,65.0011 C200.9961,59.9581 200.0021,55.7341 198.0191,52.3291 C196.0331,48.9281 193.4061,46.2291 190.1401,44.2331 C186.8711,42.2391 183.1071,40.8021 178.8471,39.9221 C174.5851,39.0411 170.1211,38.6011 165.4531,38.6011 L136.5641,38.6011 L136.5641,92.2811 L166.3291,92.2811 C170.5311,92.2811 174.7031,91.7541 178.8471,90.6971 C182.9891,89.6411 186.6961,88.0301 189.9641,85.8571 C193.2311,83.6871 195.8881,80.8721 197.9311,77.4091 C199.9721,73.9501 200.9961,69.8131 200.9961,65.0011 M210.6251,126.4261 C210.6251,133.1131 209.3691,138.5991 206.8611,142.8821 C204.3491,147.1661 201.1401,150.5371 197.2311,153.0011 C193.3191,155.4661 189.0021,157.1981 184.2751,158.1931 C179.5471,159.1911 175.0231,159.6891 170.7061,159.6891 L132.7121,159.6891 L132.7121,35.0811 L166.5031,35.0811 C171.1711,35.0811 175.8101,35.5521 180.4231,36.4891 C185.0331,37.4301 189.1471,39.0141 192.7661,41.2411 C196.3821,43.4721 199.3021,46.4641 201.5201,50.2181 C203.7361,53.9741 204.8471,58.7251 204.8471,64.4741 C204.8471,68.9331 204.1461,72.8061 202.7461,76.0901 C201.3451,79.3761 199.4471,82.1911 197.0561,84.5371 C194.6621,86.8861 191.9491,88.7921 188.9141,90.2581 C185.8771,91.7251 182.7871,92.8091 179.6341,93.5141 L179.6341,93.8651 C182.7871,94.2181 186.1701,95.0701 189.7901,96.4171 C193.4061,97.7671 196.7631,99.7341 199.8571,102.3131 C202.9491,104.8951 205.5171,108.1821 207.5601,112.1701 C209.6011,116.1601 210.6251,120.9121 210.6251,126.4261" id="Fill-27" fill="#666667"></path>
            <polygon id="Fill-29" fill="#666667" points="270.5035 38.6016 270.5035 159.6896 266.6515 159.6896 266.6515 38.6016 224.4565 38.6016 224.4565 35.0806 312.6985 35.0806 312.6985 38.6016"></polygon>
        </g>
    </g>
</svg>